<svg width="24" height="24" viewBox="0 0 24 24" fill="none" stroke="currentColor" xmlns="http://www.w3.org/2000/svg">
<path d="M15 13L15 4M15 13L19.4004 13C19.9604 13 20.2402 13 20.4541 12.891C20.6423 12.7951 20.7951 12.6423 20.891 12.4541C21 12.2402 21 11.96 21 11.3999L21 4L15 4M15 13L15 18.3999C15 18.96 15 19.2402 14.891 19.4541C14.7951 19.6423 14.6423 19.7951 14.4541 19.891C14.2402 20 13.9604 20 13.4004 20L10.6004 20C10.0403 20 9.7597 20 9.5458 19.891C9.3577 19.7951 9.2052 19.6423 9.1094 19.4541C9.0004 19.2402 9 18.9599 9 18.3999L9 16M15 4L9 4M9 16L4.6 16C4.0399 16 3.7591 16 3.5452 15.891C3.3571 15.7951 3.2052 15.6423 3.1094 15.4541C3.0004 15.2402 3 14.9599 3 14.3999L3 3.9999L9 4M9 16L9 4" stroke-width="2" stroke-linecap="round" stroke-linejoin="round"/>
</svg>
